HIERARCHY
ROOT pelvis
{
	OFFSET 0.000000 0.727022 -0.000000
	CHANNELS 6 Xposition Yposition Zposition Xrotation Yrotation Zrotation
	JOINT spine
	{
		OFFSET 0.000000 0.000000 0.000000
		CHANNELS 6 Xposition Yposition Zposition Xrotation Yrotation Zrotation
		JOINT spine.001
		{
			OFFSET 0.000000 0.207059 0.010851
			CHANNELS 3 Xrotation Yrotation Zrotation
			JOINT neck
			{
				OFFSET 0.000000 0.205797 -0.025269
				CHANNELS 6 Xposition Yposition Zposition Xrotation Yrotation Zrotation
				JOINT face
				{
					OFFSET 0.000000 0.159761 -0.002789
					CHANNELS 6 Xposition Yposition Zposition Xrotation Yrotation Zrotation
					End Site
					{
						OFFSET 0.000000 -0.006953 0.017303
					}
				}
			}
			JOINT shoulder.L
			{
				OFFSET 0.000000 0.205797 -0.025269
				CHANNELS 6 Xposition Yposition Zposition Yrotation Xrotation Zrotation
				JOINT upper_arm.L
				{
					OFFSET 0.137806 0.000000 0.000000
					CHANNELS 6 Xposition Yposition Zposition Xrotation Yrotation Zrotation
					JOINT forearm.L
					{
						OFFSET 0.219414 0.000841 -0.000101
						CHANNELS 6 Xposition Yposition Zposition Xrotation Yrotation Zrotation
						End Site
						{
							OFFSET 0.205039 -0.001158 0.003486
						}
					}
				}
			}
			JOINT shoulder.R
			{
				OFFSET 0.000000 0.205797 -0.025269
				CHANNELS 6 Xposition Yposition Zposition Yrotation Xrotation Zrotation
				JOINT upper_arm.R
				{
					OFFSET -0.137806 0.000000 0.000000
					CHANNELS 6 Xposition Yposition Zposition Xrotation Yrotation Zrotation
					JOINT forearm.R
					{
						OFFSET -0.215908 0.000841 -0.000101
						CHANNELS 6 Xposition Yposition Zposition Xrotation Yrotation Zrotation
						End Site
						{
							OFFSET -0.209494 -0.001159 0.003564
						}
					}
				}
			}
		}
	}
	JOINT pelvis.L
	{
		OFFSET 0.000000 0.000000 0.000000
		CHANNELS 6 Xposition Yposition Zposition Yrotation Xrotation Zrotation
		End Site
		{
			OFFSET 0.089911 0.000000 0.000000
		}
	}
	JOINT pelvis.R
	{
		OFFSET 0.000000 0.000000 0.000000
		CHANNELS 6 Xposition Yposition Zposition Yrotation Xrotation Zrotation
		End Site
		{
			OFFSET -0.089911 0.000000 0.000000
		}
	}
	JOINT thigh.L
	{
		OFFSET 0.089911 0.000000 0.000000
		CHANNELS 6 Xposition Yposition Zposition Xrotation Yrotation Zrotation
		JOINT shin.L
		{
			OFFSET 0.019079 -0.364056 0.000000
			CHANNELS 6 Xposition Yposition Zposition Xrotation Yrotation Zrotation
			JOINT foot.L
			{
				OFFSET 0.016153 -0.308217 0.000000
				CHANNELS 6 Xposition Yposition Zposition Xrotation Yrotation Zrotation
				End Site
				{
					OFFSET 0.012549 -0.053728 0.127950
				}
			}
		}
	}
	JOINT thigh.R
	{
		OFFSET -0.089911 0.000000 0.000000
		CHANNELS 6 Xposition Yposition Zposition Xrotation Yrotation Zrotation
		JOINT shin.R
		{
			OFFSET -0.019310 -0.368456 0.000000
			CHANNELS 6 Xposition Yposition Zposition Xrotation Yrotation Zrotation
			JOINT foot.R
			{
				OFFSET -0.015935 -0.304053 0.000000
				CHANNELS 6 Xposition Yposition Zposition Xrotation Yrotation Zrotation
				End Site
				{
					OFFSET -0.012210 -0.052277 0.124494
				}
			}
		}
	}
}
MOTION
Frames: 10
Frame Time: 0.041667
0.006299 0.003206 0.007599 0.000001 -8.285638 0.000006 -0.000000 -0.000000 -0.000000 1.660918 0.082035 -2.163140 10.002463 -1.512552 0.185759 0.000000 0.205797 -0.025269 14.329291 -15.664607 12.107830 -0.000000 0.159761 -0.002789 -2.508268 0.000017 -0.000006 -0.000000 0.205798 -0.025269 0.421505 -0.012616 3.434432 0.137806 -0.000000 -0.000000 -4.021864 -4.515763 -83.181397 0.219414 0.000841 -0.000101 -23.723310 -50.012315 -49.082941 -0.000000 0.205798 -0.025269 0.414798 -0.012215 3.380069 -0.137807 0.000000 -0.000000 -12.541313 15.061358 79.760845 -0.215908 0.000841 -0.000101 -16.538815 46.633772 37.764625 0.000000 0.000000 -0.000000 -0.000042 -0.000000 -0.279704 -0.000000 0.000000 -0.000000 0.000003 0.000000 -0.279666 0.089910 -0.000439 0.000000 6.209810 -0.040618 -6.748613 0.019079 -0.364056 0.000000 -4.587212 -0.538566 7.386447 0.016153 -0.308217 0.000000 -0.205512 1.653454 0.716880 -0.089910 0.000439 0.000000 6.083296 -0.142600 3.317632 -0.019310 -0.368456 0.000000 -5.827210 0.522996 -4.249850 -0.015935 -0.304053 0.000000 -5.267115 7.081225 2.858648 
0.006305 0.003313 0.007523 0.000001 -8.296693 0.000006 -0.000000 0.000000 -0.000000 1.682399 0.081642 -2.165787 10.002466 -1.515010 0.186060 0.000000 0.205797 -0.025269 14.316299 -15.695718 12.152631 -0.000000 0.159761 -0.002789 -2.500992 0.000012 -0.000009 -0.000000 0.205798 -0.025269 0.422642 -0.012698 3.443727 0.137806 -0.000000 0.000000 -4.042158 -4.532378 -83.229024 0.219414 0.000841 -0.000101 -23.827415 -50.094066 -49.190650 -0.000000 0.205798 -0.025269 0.415936 -0.012295 3.389364 -0.137807 -0.000000 0.000000 -12.645523 15.152662 79.843887 -0.215908 0.000841 -0.000101 -16.537056 46.661974 37.738390 0.000000 0.000000 -0.000000 -0.000042 -0.000000 -0.276365 0.000000 0.000000 -0.000000 0.000003 0.000000 -0.276327 0.089910 -0.000434 0.000000 6.195790 -0.040528 -6.748720 0.019079 -0.364056 0.000000 -4.571773 -0.536727 7.384988 0.016153 -0.308217 0.000000 -0.205730 1.674133 0.725722 -0.089910 0.000434 -0.000000 6.074393 -0.142541 3.313966 -0.019310 -0.368456 0.000000 -5.822585 0.522136 -4.239875 -0.015935 -0.304053 0.000000 -5.281382 7.073797 2.854518 
0.006039 0.003631 0.008653 0.000001 -7.629906 0.000006 -0.000000 -0.000000 0.000000 1.575731 0.084319 -2.182552 10.003547 -1.827293 0.224439 0.000000 0.205797 -0.025269 14.309266 -15.767765 12.271239 -0.000000 0.159761 -0.002789 -2.542052 -0.000007 -0.000005 0.000000 0.205797 -0.025269 0.464698 -0.015358 3.787366 0.137807 0.000000 -0.000000 -4.259223 -4.741039 -83.675227 0.219414 0.000841 -0.000101 -23.574065 -49.024632 -49.835150 -0.000000 0.205797 -0.025269 0.458028 -0.014914 3.732952 -0.137806 -0.000000 -0.000000 -11.689989 14.068211 79.597419 -0.215908 0.000841 -0.000101 -16.925366 47.400382 37.919906 0.000000 0.000000 0.000000 -0.000067 -0.000000 -0.312639 0.000000 0.000000 0.000000 -0.000003 -0.000000 -0.312639 0.089910 -0.000491 0.000000 6.302934 -0.035537 -6.645423 0.019079 -0.364056 0.000000 -4.531123 -0.527723 7.279669 0.016153 -0.308217 0.000000 -0.573408 1.036177 0.497146 -0.089910 0.000491 0.000000 6.162892 -0.138424 3.429029 -0.019310 -0.368456 0.000000 -5.853806 0.537852 -4.490353 -0.015935 -0.304053 0.000000 -5.058660 6.798377 2.728302 
0.005851 0.003999 0.009981 0.000000 -6.920446 0.000003 -0.000000 -0.000000 -0.000000 1.472674 0.086038 -2.176533 10.006247 -2.414003 0.296578 0.000000 0.205797 -0.025269 14.276626 -15.756876 12.294832 -0.000000 0.159761 -0.002789 -2.533557 -0.000017 -0.000001 0.000000 0.205797 -0.025269 0.486413 -0.016839 3.964345 0.137807 -0.000000 0.000000 -5.329655 -5.897527 -84.131504 0.219414 0.000841 -0.000101 -22.224715 -47.777395 -48.518064 0.000000 0.205797 -0.025269 0.479727 -0.016380 3.909932 -0.137806 -0.000000 -0.000000 -10.856920 13.088029 79.496531 -0.215908 0.000841 -0.000101 -17.168821 47.788569 38.094902 0.000000 0.000000 -0.000000 0.000035 0.000000 -0.387846 0.000000 0.000000 -0.000000 0.000000 0.000000 -0.387808 0.089909 -0.000609 0.000000 6.382958 -0.030502 -6.546868 0.019079 -0.364056 0.000000 -4.461163 -0.514408 7.148861 0.016153 -0.308217 0.000000 -0.904338 0.398382 0.259895 -0.089909 0.000609 -0.000000 6.292429 -0.133942 3.563520 -0.019310 -0.368456 0.000000 -5.817428 0.547056 -4.735299 -0.015935 -0.304053 0.000000 -4.941958 6.445905 2.563240 
0.005912 0.004323 0.011032 0.000000 -5.985438 0.000001 -0.000000 -0.000000 -0.000000 1.458300 0.083741 -2.111542 10.009866 -3.034709 0.372969 -0.000000 0.205797 -0.025269 14.120471 -16.080798 12.356960 -0.000000 0.159761 -0.002789 -2.382696 0.000010 0.000001 0.000000 0.205798 -0.025269 0.495626 -0.017477 4.039849 0.137807 0.000000 -0.000000 -6.442947 -7.078541 -84.622383 0.219414 0.000841 -0.000101 -21.115993 -46.647467 -47.474019 -0.000000 0.205798 -0.025269 0.488956 -0.017006 3.985435 -0.137806 -0.000000 -0.000000 -10.362301 12.513899 79.392090 -0.215908 0.000841 -0.000101 -17.004425 47.855037 37.687696 0.000000 0.000000 -0.000000 0.000079 0.000001 -0.466891 0.000000 0.000000 -0.000000 0.000000 0.000000 -0.466929 0.089908 -0.000733 0.000000 6.409335 -0.025015 -6.446643 0.019079 -0.364056 0.000000 -4.368102 -0.498215 7.007753 0.016153 -0.308217 0.000000 -1.180128 -0.395786 -0.054786 -0.089908 0.000733 -0.000000 6.387558 -0.128609 3.695519 -0.019310 -0.368456 0.000000 -5.706843 0.548415 -4.969501 -0.015935 -0.304053 0.000000 -4.712719 5.933390 2.327386 
0.006229 0.004506 0.011542 0.000000 -5.153543 0.000001 -0.000000 0.000000 -0.000000 1.495726 0.079270 -2.015550 10.012399 -3.404269 0.418481 0.000000 0.205797 -0.025269 13.962326 -16.626282 12.435564 0.000000 0.159761 -0.002789 -2.197956 -0.000009 -0.000000 -0.000000 0.205797 -0.025269 0.502307 -0.017960 4.095212 0.137807 -0.000000 -0.000000 -7.058913 -7.700452 -85.059296 0.219414 0.000841 -0.000101 -20.835784 -45.944616 -47.650350 0.000000 0.205797 -0.025269 0.495692 -0.017494 4.040740 -0.137806 -0.000000 -0.000000 -10.243660 12.399854 79.257713 -0.215908 0.000841 -0.000101 -16.379226 47.711798 36.479118 0.000000 0.000000 -0.000000 -0.000028 -0.000000 -0.481667 0.000000 0.000000 -0.000000 -0.000003 -0.000000 -0.481705 0.089908 -0.000756 0.000000 6.414226 -0.020377 -6.363538 0.019079 -0.364056 0.000000 -4.290917 -0.484678 6.883342 0.016153 -0.308217 0.000000 -1.337664 -1.053779 -0.325499 -0.089908 0.000756 0.000000 6.402401 -0.125200 3.761679 -0.019310 -0.368456 0.000000 -5.556327 0.541385 -5.121727 -0.015935 -0.304053 0.000000 -4.414245 5.502340 2.135759 
0.006521 0.004503 0.011874 0.000000 -4.483522 0.000001 -0.000000 -0.000000 -0.000000 1.491446 0.075966 -1.929722 10.013771 -3.595463 0.442050 0.000000 0.205797 -0.025269 13.945692 -17.161859 12.506975 0.000000 0.159761 -0.002789 -2.070049 -0.000002 0.000005 0.000000 0.205797 -0.025269 0.514463 -0.018833 4.194252 0.137807 -0.000000 -0.000000 -6.795854 -7.397118 -85.170840 0.219414 0.000841 -0.000101 -21.740379 -45.821786 -49.676700 -0.000000 0.205797 -0.025269 0.507816 -0.018357 4.139877 -0.137806 0.000000 -0.000000 -10.209881 12.392891 79.102900 -0.215908 0.000841 -0.000101 -15.557931 47.595210 34.809199 0.000000 0.000000 -0.000000 -0.000085 -0.000001 -0.412080 0.000000 0.000000 -0.000000 0.000000 -0.000000 -0.412042 0.089909 -0.000647 0.000000 6.428887 -0.016105 -6.286674 0.019079 -0.364056 0.000000 -4.255430 -0.476408 6.770164 0.016153 -0.308217 0.000000 -1.388187 -1.535644 -0.530728 -0.089909 0.000647 -0.000000 6.419809 -0.123164 3.804005 -0.019310 -0.368456 0.000000 -5.437385 0.533943 -5.208542 -0.015935 -0.304053 0.000000 -4.220186 5.118160 1.964041 
0.006596 0.004318 0.012348 -0.000000 -3.911525 -0.000000 -0.000000 -0.000000 -0.000000 1.413970 0.075215 -1.878225 10.015093 -3.753099 0.461489 -0.000000 0.205797 -0.025269 14.075386 -17.565411 12.584040 0.000000 0.159761 -0.002789 -1.985078 -0.000004 0.000001 -0.000000 0.205797 -0.025269 0.533128 -0.020231 4.346312 0.137806 -0.000000 0.000000 -5.749421 -6.287328 -84.836072 0.219414 0.000841 -0.000101 -23.709521 -46.108763 -53.375073 0.000000 0.205797 -0.025269 0.526458 -0.019721 4.291936 -0.137806 0.000000 -0.000000 -10.045459 12.234229 78.912304 -0.215908 0.000841 -0.000101 -14.867677 47.689091 33.236606 0.000000 0.000000 -0.000000 0.000039 0.000000 -0.310853 0.000000 0.000000 -0.000000 0.000000 0.000000 -0.310815 0.089910 -0.000488 0.000000 6.449662 -0.011340 -6.201198 0.019079 -0.364056 0.000000 -4.238897 -0.469924 6.646426 0.016153 -0.308217 0.000000 -1.429691 -1.935767 -0.701691 -0.089910 0.000488 0.000000 6.493277 -0.120332 3.878899 -0.019310 -0.368456 0.000000 -5.382709 0.532180 -5.284762 -0.015935 -0.304053 0.000000 -4.195800 4.703830 1.771282 
0.006582 0.004037 0.012815 -0.000000 -3.546850 -0.000000 -0.000000 -0.000000 -0.000000 1.316667 0.076138 -1.861795 10.015825 -3.840950 0.472325 0.000000 0.205797 -0.025269 14.235787 -17.813497 12.667111 0.000000 0.159760 -0.002789 -1.892002 0.000009 -0.000009 0.000000 0.205797 -0.025269 0.551773 -0.021676 4.498751 0.137807 0.000000 -0.000000 -4.719679 -5.199309 -84.320393 0.219414 0.000841 -0.000101 -25.725551 -46.407287 -57.008632 0.000000 0.205797 -0.025269 0.545085 -0.021150 4.444329 -0.137807 0.000000 -0.000000 -9.846799 12.042504 78.674757 -0.215908 0.000841 -0.000101 -14.469300 47.932184 32.182352 0.000000 0.000000 0.000000 0.000061 0.000000 -0.243281 0.000000 0.000000 0.000000 0.000000 0.000000 -0.243243 0.089911 -0.000382 -0.000000 6.457473 -0.006816 -6.120750 0.019079 -0.364056 0.000000 -4.203934 -0.460991 6.510471 0.016153 -0.308217 0.000000 -1.512679 -2.188806 -0.805724 -0.089911 0.000382 -0.000000 6.573720 -0.117440 3.955157 -0.019310 -0.368456 0.000000 -5.376825 0.534716 -5.350514 -0.015935 -0.304053 0.000000 -4.261100 4.402369 1.626722 
0.006653 0.003789 0.013041 -0.000000 -3.483404 -0.000000 -0.000000 0.000000 -0.000000 1.258344 0.077273 -1.866235 10.015534 -3.804388 0.467816 -0.000000 0.205797 -0.025269 14.322457 -17.949030 12.741092 -0.000000 0.159760 -0.002789 -1.771037 -0.000014 0.000013 0.000000 0.205798 -0.025269 0.562989 -0.022571 4.589861 0.137807 0.000000 0.000000 -4.553862 -5.039764 -84.040574 0.219414 0.000841 -0.000101 -26.543165 -46.508964 -58.464773 0.000000 0.205798 -0.025269 0.556292 -0.022033 4.535500 -0.137807 0.000000 -0.000000 -9.766454 11.994412 78.438159 -0.215908 0.000841 -0.000101 -14.346650 48.129140 31.767060 0.000000 0.000000 -0.000000 0.000057 0.000000 -0.228012 0.000000 0.000000 -0.000000 0.000000 0.000000 -0.228050 0.089911 -0.000358 -0.000000 6.447126 -0.003731 -6.066120 0.019079 -0.364056 0.000000 -4.143828 -0.449745 6.383529 0.016153 -0.308217 0.000000 -1.588474 -2.204780 -0.806902 -0.089911 0.000358 -0.000000 6.607269 -0.116697 3.978445 -0.019310 -0.368456 0.000000 -5.392886 0.537540 -5.376177 -0.015935 -0.304053 0.000000 -4.314517 4.352254 1.600312 
